# xmcd
#
# Track frame offsets:
# 150
# 14926
# 30535
# 43966
# 61323
# 76673
# 92389
# 108510
# 123208
# 147775
#
# Disc length: 2176 seconds
#
# Revision: 9
# Processed by: cddbd v1.5.1PL0 Copyright (c) Steve Scherf et al.
# Submitted via: Axialis_AX_CDPlayer 2.6
#
DISCID=7c087e0a
DTITLE=Traveling Wilburys - Traveling Wilburys
DYEAR=1988
DGENRE=Rock and Roll
TTITLE0=Handle with care
TTITLE1=Dirty world
TTITLE2=Rattled
TTITLE3=Last night
TTITLE4=Not alone any more
TTITLE5=Congratulations
TTITLE6=Heading for the light
TTITLE7=Margarita
TTITLE8=Tweeter and the monkey man
TTITLE9=End of the line
EXTD=YEAR: 1988 ID3G: 78
EXTT0=
EXTT1=
EXTT2=
EXTT3=
EXTT4=
EXTT5=
EXTT6=
EXTT7=
EXTT8=
EXTT9=
PLAYORDER=
